<svg width="64" height="64" viewBox="0 0 64 64" fill="none" xmlns="http://www.w3.org/2000/svg">
<path d="M56.0097 6.96289L35.1992 22.4838L39.0476 13.3267L56.0097 6.96289Z" fill="#E2761B"/>
<path d="M7.96756 6.96289L28.6107 22.6308L24.9506 13.3267L7.96756 6.96289ZM48.5218 42.9403L42.9793 51.4673L54.8382 54.7437L58.2473 43.1293L48.5218 42.9403ZM5.77148 43.1293L9.15972 54.7437L21.0185 51.4673L15.4761 42.9403L5.77148 43.1293Z" fill="#E4761B"/>
<path d="M20.3495 28.5315L17.0449 33.5512L28.8201 34.0762L28.4018 21.3697L20.3495 28.5315ZM43.6279 28.5315L35.4711 21.2227L35.1992 34.0762L46.9534 33.5512L43.6279 28.5315ZM21.0188 51.4663L28.0881 48.0009L21.9809 43.2123L21.0188 51.4663ZM35.8894 48.0009L42.9796 51.4663L41.9966 43.2123L35.8894 48.0009Z" fill="#E4761B"/>
<path d="M42.9784 51.4674L35.8882 48.002L36.4529 52.6435L36.3901 54.5968L42.9784 51.4674ZM21.0176 51.4674L27.6058 54.5968L27.564 52.6435L28.0869 48.002L21.0176 51.4674Z" fill="#D7C1B3"/>
<path d="M27.7105 40.1466L21.8125 38.4034L25.9746 36.4922L27.7105 40.1466ZM36.2648 40.1466L38.0007 36.4922L42.1837 38.4034L36.2648 40.1466Z" fill="#233447"/>
<path d="M21.019 51.4679L22.023 42.9409L15.4766 43.1299L21.019 51.4679ZM41.9759 42.9409L42.9798 51.4679L48.5223 43.1299L41.9759 42.9409ZM46.9537 33.5527L35.1994 34.0778L36.287 40.1475L38.023 36.4931L42.206 38.4043L46.9537 33.5527ZM21.8138 38.4043L25.9968 36.4931L27.7119 40.1475L28.8204 34.0778L17.0452 33.5527L21.8138 38.4043Z" fill="#CD6116"/>
<path d="M17.0449 33.5527L21.9809 43.2139L21.8135 38.4043L17.0449 33.5527ZM42.2057 38.4043L41.9966 43.2139L46.9534 33.5527L42.2057 38.4043ZM28.8201 34.0778L27.7116 40.1475L29.092 47.3094L29.4057 37.8793L28.8201 34.0778ZM35.1992 34.0778L34.6345 37.8583L34.8854 47.3094L36.2868 40.1475L35.1992 34.0778Z" fill="#E4751F"/>
<path d="M36.2857 40.1475L34.8844 47.3094L35.8883 48.0025L41.9955 43.2139L42.2047 38.4043L36.2857 40.1475ZM21.8125 38.4043L21.9798 43.2139L28.087 48.0025L29.0909 47.3094L27.7105 40.1475L21.8125 38.4043Z" fill="#F6851B"/>
<path d="M36.3901 54.5962L36.4529 52.6429L35.93 52.1809H28.045L27.564 52.6429L27.6058 54.5962L21.0176 51.4668L23.3182 53.357L27.9823 56.6124H35.9927L40.6777 53.357L42.9784 51.4668L36.3901 54.5962Z" fill="#C0AD9E"/>
<path d="M35.8886 48.0017L34.8847 47.3086H29.0912L28.0873 48.0017L27.5645 52.6432L28.0455 52.1812H35.9305L36.4533 52.6432L35.8886 48.0017Z" fill="#161616"/>
<path d="M56.8876 23.4919L58.6654 14.9229L56.0092 6.96289L35.8889 21.9587L43.6275 28.5325L54.566 31.7459L56.9922 28.9106L55.9464 28.1545L57.6196 26.6213L56.3229 25.6132L57.9961 24.332L56.8876 23.4919ZM5.33203 14.9229L7.10981 23.4919L5.9804 24.332L7.6536 25.6132L6.37778 26.6213L8.05099 28.1545L7.00523 28.9106L9.41046 31.7459L20.349 28.5325L28.0876 21.9587L7.96733 6.96289L5.33203 14.9229Z" fill="#763D16"/>
<path d="M54.5663 31.7454L43.6277 28.532L46.9532 33.5516L41.9963 43.2128L48.5218 43.1288H58.2473L54.5663 31.7454ZM20.3493 28.532L9.4107 31.7454L5.77148 43.1288H15.4761L21.9806 43.2128L17.0447 33.5516L20.3493 28.532ZM35.1989 34.0767L35.8891 21.9582L39.0682 13.3262H24.9506L28.0878 21.9582L28.8199 34.0767L29.0708 37.8991L29.0917 47.3083H34.8852L34.927 37.8991L35.1989 34.0767Z" fill="#F6851B"/>
</svg>
