<svg width="17" height="9" viewBox="0 0 17 9" fill="none" xmlns="http://www.w3.org/2000/svg">
<mask id="path-1-inside-1_5152_7550" fill="white">
<path d="M15.5313 0.25H1.46883C1.31434 0.250032 1.16332 0.294035 1.03488 0.376449C0.906431 0.458862 0.806322 0.575985 0.747204 0.713009C0.688087 0.850034 0.672616 1.00081 0.702747 1.14627C0.732878 1.29174 0.807258 1.42536 0.916484 1.53025L7.94773 8.28025C8.02025 8.34992 8.10636 8.40518 8.20113 8.44288C8.2959 8.48059 8.39749 8.5 8.50008 8.5C8.60267 8.5 8.70425 8.48059 8.79903 8.44288C8.8938 8.40518 8.97991 8.34992 9.05242 8.28025L16.0837 1.53025C16.1929 1.42536 16.2673 1.29174 16.2974 1.14627C16.3275 1.00081 16.3121 0.850034 16.253 0.713009C16.1938 0.575985 16.0937 0.458862 15.9653 0.376449C15.8368 0.294035 15.6858 0.250032 15.5313 0.25Z"/>
</mask>
<path d="M15.5313 0.25H1.46883C1.31434 0.250032 1.16332 0.294035 1.03488 0.376449C0.906431 0.458862 0.806322 0.575985 0.747204 0.713009C0.688087 0.850034 0.672616 1.00081 0.702747 1.14627C0.732878 1.29174 0.807258 1.42536 0.916484 1.53025L7.94773 8.28025C8.02025 8.34992 8.10636 8.40518 8.20113 8.44288C8.2959 8.48059 8.39749 8.5 8.50008 8.5C8.60267 8.5 8.70425 8.48059 8.79903 8.44288C8.8938 8.40518 8.97991 8.34992 9.05242 8.28025L16.0837 1.53025C16.1929 1.42536 16.2673 1.29174 16.2974 1.14627C16.3275 1.00081 16.3121 0.850034 16.253 0.713009C16.1938 0.575985 16.0937 0.458862 15.9653 0.376449C15.8368 0.294035 15.6858 0.250032 15.5313 0.25Z" fill="#AAAAAA" stroke="#AAAAAA" stroke-width="2" mask="url(#path-1-inside-1_5152_7550)"/>
</svg>
