<svg width="17" height="10" viewBox="0 0 17 10" fill="none" xmlns="http://www.w3.org/2000/svg">
<mask id="path-1-inside-1_5152_8171" fill="white">
<path d="M15.5313 0.84375H1.46883C1.31434 0.843783 1.16332 0.88962 1.03488 0.975467C0.906431 1.06131 0.806322 1.18332 0.747204 1.32605C0.688087 1.46879 0.672616 1.62584 0.702747 1.77737C0.732878 1.92889 0.807258 2.06809 0.916484 2.17734L7.94773 9.2086C8.02025 9.28116 8.10636 9.33873 8.20113 9.37801C8.2959 9.41728 8.39749 9.4375 8.50008 9.4375C8.60267 9.4375 8.70425 9.41728 8.79903 9.37801C8.8938 9.33873 8.97991 9.28116 9.05242 9.2086L16.0837 2.17734C16.1929 2.06809 16.2673 1.92889 16.2974 1.77737C16.3275 1.62584 16.3121 1.46879 16.253 1.32605C16.1938 1.18332 16.0937 1.06131 15.9653 0.975467C15.8368 0.88962 15.6858 0.843783 15.5313 0.84375Z"/>
</mask>
<path d="M15.5313 0.84375H1.46883C1.31434 0.843783 1.16332 0.88962 1.03488 0.975467C0.906431 1.06131 0.806322 1.18332 0.747204 1.32605C0.688087 1.46879 0.672616 1.62584 0.702747 1.77737C0.732878 1.92889 0.807258 2.06809 0.916484 2.17734L7.94773 9.2086C8.02025 9.28116 8.10636 9.33873 8.20113 9.37801C8.2959 9.41728 8.39749 9.4375 8.50008 9.4375C8.60267 9.4375 8.70425 9.41728 8.79903 9.37801C8.8938 9.33873 8.97991 9.28116 9.05242 9.2086L16.0837 2.17734C16.1929 2.06809 16.2673 1.92889 16.2974 1.77737C16.3275 1.62584 16.3121 1.46879 16.253 1.32605C16.1938 1.18332 16.0937 1.06131 15.9653 0.975467C15.8368 0.88962 15.6858 0.843783 15.5313 0.84375Z" fill="#2E2B2C" stroke="#585858" stroke-width="2" mask="url(#path-1-inside-1_5152_8171)"/>
</svg>
